<svg xmlns="http://www.w3.org/2000/svg" width="448.923" height="150.396" viewBox="0 0 448.923 150.396" id="signature" class="animate">
  <path id="stroke-an" class="stroke-an" d="M10.117,7.852q0-4.832-.3-14.5l-.151-5.587L6.946-9.815Q5.738-8.758,5.285-8.305L6.493-3.926Q8.305,2.567,10.117,7.852ZM42.733-86.825q.3,3.775.3,6.795a121.839,121.839,0,0,1-.755,13.137q-.3,2.718-.755,5.889L40.77,46.659a1.8,1.8,0,0,1-1.812,1.812,1.34,1.34,0,0,1-.6-.151,2.015,2.015,0,0,1-.528-.377,1.772,1.772,0,0,1-.378-.6,1.855,1.855,0,0,1-.151-.68l-.906-89.09a7.934,7.934,0,0,1-.755,1.208Q30.2-30.955,19.177-20.536q-1.812,1.661-4.228,3.775V-15.1q.151,2.567.151,4.077l.151,5.285Q15.553,8,15.4,14.949a8.049,8.049,0,0,1-.151,1.812,9.625,9.625,0,0,1-.3,1.359,3.545,3.545,0,0,1-.755,1.208,4.022,4.022,0,0,1-1.359.906,4.6,4.6,0,0,1-1.661,0,4.185,4.185,0,0,1-1.661-1.208l-.3-.3-.6-.906q-.453-.755-.906-1.661Q6.644,13.892,5.285,9.966,3.322,4.077,1.51-2.567L.151-8.154V-9.211a5.291,5.291,0,0,1,.755-1.51l.151-.3a23.624,23.624,0,0,1,2.265-2.265l2.869-2.567q1.51-1.208,3.322-2.869-.755-27.029-.6-43.79a1.855,1.855,0,0,1,.151-.68,1.772,1.772,0,0,1,.378-.6,1.12,1.12,0,0,1,.528-.3,2.482,2.482,0,0,1,.6-.076,1.572,1.572,0,0,1,1.812,1.51q1.51,17.516,2.265,39.411A3.275,3.275,0,0,0,15.7-24.16q10.721-9.966,15.7-19.328a41.945,41.945,0,0,0,4.228-11.325q.151-1.208.453-3.473l.151-.755-.453-33.824a3.03,3.03,0,0,1,.831-2.114,2.829,2.829,0,0,1,2.189-.906,2.648,2.648,0,0,1,2.869,2.114A36.275,36.275,0,0,1,42.733-86.825ZM65.987-5.889a1.569,1.569,0,0,1,.151,2.416,14.247,14.247,0,0,1-1.963,2.114A5.42,5.42,0,0,1,60.7,0h-.151a5.581,5.581,0,0,1-3.775-1.963,8.949,8.949,0,0,1-1.661-2.869,19.373,19.373,0,0,1-.453-3.02V-10.57q0-3.02.151-5.134l.453-5.134a3.845,3.845,0,0,0-1.057-2.567l-3.322-3.02q0,2.114-.151,3.775a35.137,35.137,0,0,1-2.567,10.419A34.479,34.479,0,0,1,45.451-7.4a14.522,14.522,0,0,1-3.926,3.926,1.878,1.878,0,0,1-1.359.378,1.654,1.654,0,0,1-1.208-.68,1.974,1.974,0,0,1,.151-2.416,22.733,22.733,0,0,0,4.832-7.852,46.236,46.236,0,0,0,2.416-9.06,55.07,55.07,0,0,0,.453-7.4,15.868,15.868,0,0,1-1.51-2.416,13.962,13.962,0,0,1-.453-1.661,3.611,3.611,0,0,1,.3-2.567,3.47,3.47,0,0,1,1.208-1.208,2.371,2.371,0,0,1,1.661-.3,2.34,2.34,0,0,1,1.359.906,8.346,8.346,0,0,1,.755,1.661v.151a19.116,19.116,0,0,1,.453,2.869,7.92,7.92,0,0,0,1.359.906l2.265,1.51a12.848,12.848,0,0,0,1.51,1.208l2.567,2.416a8.566,8.566,0,0,1,2.265,6.644L59.8-13.741q-.151,2.265-.3,3.322V-8a5.325,5.325,0,0,0,0,1.812q.6,1.812,1.208,1.963,1.057.3,2.718-1.661A1.551,1.551,0,0,1,65.987-5.889ZM75.8-42.431a3,3,0,0,1-1.359-.3,5.55,5.55,0,0,1-1.132-.755,3.363,3.363,0,0,1-.83-1.057,3,3,0,0,1-.3-1.359A3.252,3.252,0,0,1,73.235-48.4a3.636,3.636,0,0,1,2.567-.982,4.507,4.507,0,0,1,1.435.226,2.843,2.843,0,0,1,1.132.68,3.712,3.712,0,0,1,.755,1.133,3.493,3.493,0,0,1,.3,1.434,3.326,3.326,0,0,1-1.057,2.416A3.5,3.5,0,0,1,75.8-42.431Zm9.815,38.2a1.822,1.822,0,0,1,0,2.567A9.756,9.756,0,0,1,83.2.3,16.056,16.056,0,0,1,80.483,1.51a25.506,25.506,0,0,1-2.718.453H76.406a9.491,9.491,0,0,0-1.51-.151A8.544,8.544,0,0,1,69.46-1.812a15,15,0,0,1-2.265-5.134,36.588,36.588,0,0,1-.453-10.117,39.837,39.837,0,0,1,1.963-9.513,2.111,2.111,0,0,1,1.057-1.133,2.1,2.1,0,0,1,1.661-.075,1.8,1.8,0,0,1,1.359,2.114l-.151,1.359q-.453,5.134-.6,7.7a39.916,39.916,0,0,0,.453,8.456,9.993,9.993,0,0,0,1.359,3.322,3.4,3.4,0,0,0,2.114,1.359Q80.03-2.567,82.6-4.53l.151-.151a2.564,2.564,0,0,1,1.585-.378A1.6,1.6,0,0,1,85.617-4.228Zm22.2-12.684a13.982,13.982,0,0,1-.755,8,11.507,11.507,0,0,1-2.265,3.624,19.406,19.406,0,0,1-3.02,2.718A13.093,13.093,0,0,1,94.073,0h-.3a8.96,8.96,0,0,1-7.7-4.077,12.4,12.4,0,0,1-2.265-7.4,1.34,1.34,0,0,1,.151-.6,2.015,2.015,0,0,1,.378-.528,2.015,2.015,0,0,1,.528-.378,1.34,1.34,0,0,1,.6-.151,1.561,1.561,0,0,1,1.51.906A14.215,14.215,0,0,0,90-7.248a5.159,5.159,0,0,0,3.926,1.812h.151A7.634,7.634,0,0,0,98.6-7.1a9.155,9.155,0,0,0,2.114-1.812,7.241,7.241,0,0,0,1.208-2.114q1.51-3.624-1.057-11.174l-1.359-4.077q-.755-2.114-1.057-2.869A44.249,44.249,0,0,1,88.335-15.251,1.419,1.419,0,0,1,86.07-15.4a1.391,1.391,0,0,1,.151-2.114,43.125,43.125,0,0,0,7.4-10.57,65.365,65.365,0,0,0,3.02-7.1v-.151q-1.963-8.305.151-14.5a3.356,3.356,0,0,1,.453-1.057v-.151A7.934,7.934,0,0,1,98-52.246a2.377,2.377,0,0,1,.906-.6A2.63,2.63,0,0,1,100.868-53a3.2,3.2,0,0,1,1.359,1.208l.151.151a5.9,5.9,0,0,1,.453,1.208,16.159,16.159,0,0,1,.453,3.926,18.5,18.5,0,0,1-.906,7.4q-.3,1.057-.906,2.567v.151q.755,2.567,2.869,8Q105.4-25.519,106-24.009A43.285,43.285,0,0,1,107.814-16.912ZM125.33-46.961a172.706,172.706,0,0,0-.151-23.858q-.3-5.587-1.057-11.929a64.115,64.115,0,0,0-2.265-11.325,3.356,3.356,0,0,0-.453-1.057,15.845,15.845,0,0,0-.453,2.114q-.3,1.661-.6,5.436v.3q-.3,3.171-.453,6.04-.453,11.174-.3,24.16t.906,24.16q.151,2.265.3,3.926a66.655,66.655,0,0,0,2.567-6.493A52.275,52.275,0,0,0,125.33-46.961ZM144.205-9.513a1.645,1.645,0,0,1,0,2.416,42.449,42.449,0,0,1-5.436,5.134,13.612,13.612,0,0,1-1.661,1.057q-1.359.6-2.265.906h-.755a3.617,3.617,0,0,1-2.869-1.208,7.089,7.089,0,0,1-1.51-2.416,19.962,19.962,0,0,1-.6-5.134A16.179,16.179,0,0,1,127.9-5.436l-.151.151a5.462,5.462,0,0,1-1.963,2.265,3.53,3.53,0,0,1-3.02.453,4.116,4.116,0,0,1-1.812-1.057A9.412,9.412,0,0,1,118.535-7.4l-.151-.453a64.248,64.248,0,0,1-1.51-6.644A105.494,105.494,0,0,1,106.606-3.624a1.537,1.537,0,0,1-1.132.453,1.537,1.537,0,0,1-1.133-.453,1.46,1.46,0,0,1,0-2.114,118.771,118.771,0,0,0,11.627-14.8q-.6-4.077-1.208-12.08-.6-10.57-.6-24.462-.151-12.986.453-24.462.151-2.869.453-6.191v-.755q.3-3.624.6-5.587l.906-3.322q.453-.906.906-1.661a5.343,5.343,0,0,1,1.661-2.114,4.527,4.527,0,0,1,2.416-.755,4.007,4.007,0,0,1,2.114.906,10.09,10.09,0,0,1,1.661,1.812,13.233,13.233,0,0,1,1.51,3.171,69.093,69.093,0,0,1,2.416,11.627l.151.906q.755,6.795,1.208,12.382a152.154,152.154,0,0,1-.151,24.613,50.337,50.337,0,0,1-2.416,12.533A53.552,53.552,0,0,1,122.612-22.5a5.841,5.841,0,0,0-.755,1.057l-.151.151-.151.3a74.065,74.065,0,0,0,2.114,11.023q.151-.6.453-1.963.3-1.51.453-2.114a43.822,43.822,0,0,1,2.416-7.1q.6-1.208,1.057-1.963l.3-.3a2.932,2.932,0,0,1,1.812-1.208,2.484,2.484,0,0,1,.755-.151h.906a3.739,3.739,0,0,1,1.359.755,6.275,6.275,0,0,1,.906,1.208,6.083,6.083,0,0,1,.453,2.416v.3a11.959,11.959,0,0,1,.151,1.963q-.151,1.661-.3,4.681-.151,1.51-.151,2.265v.755a17.234,17.234,0,0,0,.151,5.436v.3l.6-.3a5.14,5.14,0,0,0,1.359-.6,42.371,42.371,0,0,0,5.134-4.077A1.758,1.758,0,0,1,144.205-9.513Zm9.664-32.918a3,3,0,0,1-1.359-.3,5.551,5.551,0,0,1-1.133-.755,3.363,3.363,0,0,1-.83-1.057,3,3,0,0,1-.3-1.359A3.252,3.252,0,0,1,151.3-48.4a3.636,3.636,0,0,1,2.567-.982,4.507,4.507,0,0,1,1.435.226,2.843,2.843,0,0,1,1.132.68,3.712,3.712,0,0,1,.755,1.133,3.493,3.493,0,0,1,.3,1.434,3.326,3.326,0,0,1-1.057,2.416A3.5,3.5,0,0,1,153.869-42.431Zm9.815,38.2a1.822,1.822,0,0,1,0,2.567A9.755,9.755,0,0,1,161.268.3,16.056,16.056,0,0,1,158.55,1.51a25.506,25.506,0,0,1-2.718.453h-1.359a9.491,9.491,0,0,0-1.51-.151,8.544,8.544,0,0,1-5.436-3.624,15,15,0,0,1-2.265-5.134,36.588,36.588,0,0,1-.453-10.117,39.837,39.837,0,0,1,1.963-9.513,2.111,2.111,0,0,1,1.057-1.133,2.1,2.1,0,0,1,1.661-.075,1.8,1.8,0,0,1,1.359,2.114l-.151,1.359q-.453,5.134-.6,7.7a39.917,39.917,0,0,0,.453,8.456,9.993,9.993,0,0,0,1.359,3.322,3.4,3.4,0,0,0,2.114,1.359q4.077.906,6.644-1.057l.151-.151a2.564,2.564,0,0,1,1.586-.378A1.6,1.6,0,0,1,163.684-4.228Zm21.744-.906a1.7,1.7,0,0,1-.151,1.812,5.993,5.993,0,0,1-1.812,2.114A6.818,6.818,0,0,1,180.445,0h-.755a7.663,7.663,0,0,1-2.114-.3,9.756,9.756,0,0,1-2.869-1.208,8.747,8.747,0,0,1-3.02-4.983,17.619,17.619,0,0,1-.6-4.832,94.941,94.941,0,0,1,1.359-11.325l.906-5.436q.151-2.265.151-3.775a3.346,3.346,0,0,0-.151-1.057.435.435,0,0,1-.151.3,10.98,10.98,0,0,0-1.208,3.473q-.453,2.265-.906,7.248v.755q-.453,4.983-.6,8.154a1.154,1.154,0,0,1-.378.831,1.154,1.154,0,0,1-.831.377.435.435,0,0,1-.3-.151q.151,5.285.151,8.758a2.135,2.135,0,0,1-.68,1.887,2.6,2.6,0,0,1-1.887.831H166.4a2.729,2.729,0,0,1-1.887-.755,2.53,2.53,0,0,1-.831-1.963q0-20.989-.6-41.374-.453-10.872-1.057-20.687a196.456,196.456,0,0,0-1.963-20.385,1.805,1.805,0,0,1,.227-1.359,1.652,1.652,0,0,1,1.132-.755,1.492,1.492,0,0,1,1.963,1.359A157.55,157.55,0,0,1,166.1-66.893l.151,1.359q.755,8.456,1.359,20.687.453,7.55.755,16.761a3.18,3.18,0,0,1,.076-.528,3.5,3.5,0,0,0,.076-.68v-.6a22.077,22.077,0,0,1,1.359-4.379,6.969,6.969,0,0,1,1.359-2.114,3.047,3.047,0,0,1,1.359-1.208,2.208,2.208,0,0,1,1.359-.453,2.245,2.245,0,0,1,1.661.6,6.087,6.087,0,0,1,1.661,2.416v.453a20.372,20.372,0,0,1,.453,2.416,33.675,33.675,0,0,1,0,4.53q-.151,2.114-.6,6.191a71.513,71.513,0,0,0-.6,10.117q0,4.379,1.51,5.285a4.288,4.288,0,0,0,2.265.755,4.5,4.5,0,0,0,2.567-.6,1.792,1.792,0,0,1,1.359-.076A2.288,2.288,0,0,1,185.428-5.134Zm11.778-26.123a1.681,1.681,0,0,0-.755.151,4.921,4.921,0,0,0-3.322,2.265q-2.416,3.775-2.567,10.721a28.836,28.836,0,0,0,.3,4.077l2.869-2.869a24.375,24.375,0,0,0,3.926-4.228,11.126,11.126,0,0,0,2.114-4.681,5.063,5.063,0,0,0-.755-4.077,2.554,2.554,0,0,0-1.057-1.208A1.681,1.681,0,0,0,197.206-31.257ZM210.947-9.815a1.723,1.723,0,0,1,.6,2.567,18.97,18.97,0,0,1-4.228,5.587,13.247,13.247,0,0,1-6.493,3.473,9.928,9.928,0,0,1-2.416.3,12.668,12.668,0,0,1-5.134-1.057,11.619,11.619,0,0,1-5.436-5.889.615.615,0,0,1-.151-.453q-3.02,2.416-5.587,4.228-1.51,1.057-2.718-.6a1.785,1.785,0,0,1,.453-2.567q2.718-2.265,6.342-5.587a51.837,51.837,0,0,1-.906-8.456q.151-8.456,3.473-13.59a10.018,10.018,0,0,1,6.795-4.681,8.448,8.448,0,0,1,4.681.6,7.9,7.9,0,0,1,3.322,3.02,10.447,10.447,0,0,1,1.51,8.154,18.223,18.223,0,0,1-3.171,6.644,43.411,43.411,0,0,1-4.832,4.983l-5.134,4.53a19,19,0,0,0,.6,1.812,5.886,5.886,0,0,0,2.718,3.473,8.4,8.4,0,0,0,4.681.755q4.681-.755,8.3-6.493A1.839,1.839,0,0,1,210.947-9.815Zm20.083-7.1a13.982,13.982,0,0,1-.755,8,11.507,11.507,0,0,1-2.265,3.624,19.4,19.4,0,0,1-3.02,2.718A13.093,13.093,0,0,1,217.289,0h-.3a8.96,8.96,0,0,1-7.7-4.077,12.4,12.4,0,0,1-2.265-7.4,1.34,1.34,0,0,1,.151-.6,2.015,2.015,0,0,1,.378-.528,2.015,2.015,0,0,1,.529-.378,1.34,1.34,0,0,1,.6-.151,1.561,1.561,0,0,1,1.51.906,14.215,14.215,0,0,0,3.02,4.983,5.159,5.159,0,0,0,3.926,1.812h.151a7.634,7.634,0,0,0,4.53-1.661,9.156,9.156,0,0,0,2.114-1.812,7.241,7.241,0,0,0,1.208-2.114q1.51-3.624-1.057-11.174l-1.359-4.077q-.755-2.114-1.057-2.869a44.249,44.249,0,0,1-10.117,13.892,1.419,1.419,0,0,1-2.265-.151,1.391,1.391,0,0,1,.151-2.114,43.126,43.126,0,0,0,7.4-10.57,65.368,65.368,0,0,0,3.02-7.1v-.151q-1.963-8.305.151-14.5a3.356,3.356,0,0,1,.453-1.057v-.151a7.934,7.934,0,0,1,.755-1.208,2.377,2.377,0,0,1,.906-.6A2.63,2.63,0,0,1,224.084-53a3.2,3.2,0,0,1,1.359,1.208l.151.151a5.9,5.9,0,0,1,.453,1.208,16.159,16.159,0,0,1,.453,3.926,18.5,18.5,0,0,1-.906,7.4q-.3,1.057-.906,2.567v.151q.755,2.567,2.869,8,1.057,2.869,1.661,4.379A43.286,43.286,0,0,1,231.03-16.912Zm17.516-30.049a172.709,172.709,0,0,0-.151-23.858q-.3-5.587-1.057-11.929a64.115,64.115,0,0,0-2.265-11.325,3.356,3.356,0,0,0-.453-1.057,15.847,15.847,0,0,0-.453,2.114q-.3,1.661-.6,5.436v.3q-.3,3.171-.453,6.04-.453,11.174-.3,24.16t.906,24.16q.151,2.265.3,3.926a66.654,66.654,0,0,0,2.567-6.493A52.275,52.275,0,0,0,248.546-46.961ZM267.421-9.513a1.645,1.645,0,0,1,0,2.416,42.449,42.449,0,0,1-5.436,5.134,13.61,13.61,0,0,1-1.661,1.057q-1.359.6-2.265.906H257.3a3.617,3.617,0,0,1-2.869-1.208,7.089,7.089,0,0,1-1.51-2.416,19.962,19.962,0,0,1-.6-5.134,16.179,16.179,0,0,1-1.208,3.322l-.151.151A5.462,5.462,0,0,1,249-3.02a3.53,3.53,0,0,1-3.02.453,4.116,4.116,0,0,1-1.812-1.057A9.411,9.411,0,0,1,241.751-7.4l-.151-.453a64.248,64.248,0,0,1-1.51-6.644A105.494,105.494,0,0,1,229.822-3.624a1.537,1.537,0,0,1-1.133.453,1.537,1.537,0,0,1-1.132-.453,1.46,1.46,0,0,1,0-2.114,118.772,118.772,0,0,0,11.627-14.8q-.6-4.077-1.208-12.08-.6-10.57-.6-24.462-.151-12.986.453-24.462.151-2.869.453-6.191v-.755q.3-3.624.6-5.587l.906-3.322q.453-.906.906-1.661a5.343,5.343,0,0,1,1.661-2.114,4.527,4.527,0,0,1,2.416-.755,4.007,4.007,0,0,1,2.114.906,10.091,10.091,0,0,1,1.661,1.812,13.233,13.233,0,0,1,1.51,3.171,69.093,69.093,0,0,1,2.416,11.627l.151.906q.755,6.795,1.208,12.382a152.154,152.154,0,0,1-.151,24.613,50.337,50.337,0,0,1-2.416,12.533A53.552,53.552,0,0,1,245.828-22.5a5.841,5.841,0,0,0-.755,1.057l-.151.151-.151.3a74.065,74.065,0,0,0,2.114,11.023q.151-.6.453-1.963.3-1.51.453-2.114a43.824,43.824,0,0,1,2.416-7.1q.6-1.208,1.057-1.963l.3-.3a2.932,2.932,0,0,1,1.812-1.208,2.484,2.484,0,0,1,.755-.151h.906a3.739,3.739,0,0,1,1.359.755A6.274,6.274,0,0,1,257.3-22.8a6.083,6.083,0,0,1,.453,2.416v.3a11.958,11.958,0,0,1,.151,1.963q-.151,1.661-.3,4.681-.151,1.51-.151,2.265v.755a17.234,17.234,0,0,0,.151,5.436v.3l.6-.3a5.139,5.139,0,0,0,1.359-.6A42.371,42.371,0,0,0,264.7-9.664,1.758,1.758,0,0,1,267.421-9.513ZM440.316-88.637a7.905,7.905,0,0,1,.755,6.946,15.013,15.013,0,0,1-2.567,5.285,44.593,44.593,0,0,1-7.1,7.852,95.42,95.42,0,0,1-17.214,11.778,105.88,105.88,0,0,1-18.875,8.154A76.569,76.569,0,0,1,385.2-46.206q-2.265.3-5.134.6a1.624,1.624,0,0,1-.3.906l-.151.3-.906.453a1.626,1.626,0,0,1-1.51-.151L375.839-45a2.741,2.741,0,0,1-.906-1.963,1.96,1.96,0,0,1,1.057-1.812,1.9,1.9,0,0,1,.755-.453,11.959,11.959,0,0,1,1.963-.151,4.13,4.13,0,0,1,.906-.151q2.718-.3,4.832-.755a91.072,91.072,0,0,0,9.513-2.567,104.518,104.518,0,0,0,17.969-8,83.735,83.735,0,0,0,16.006-11.476,38.9,38.9,0,0,0,6.342-6.946q2.869-4.53,1.51-6.644t-6.946-3.02a70.265,70.265,0,0,0-9.664-.3q-4.379.3-9.815,1.057l-9.815,1.51A236.013,236.013,0,0,0,360.89-76.557q-8.758,3.02-18.573,7.55-11.023,5.436-17.365,9.362a163.278,163.278,0,0,0-16.308,11.476l-.755.6a10.767,10.767,0,0,0-2.416,2.265,2.635,2.635,0,0,0-.453,2.265,8.05,8.05,0,0,0,1.812,3.171A29.9,29.9,0,0,0,310-36.542q.755.755,2.567,2.265,3.473,2.869,5.134,4.53,3.171,2.869,7.248,7.248,7.248,7.7,13.439,15.1Q342.619-2.416,347,3.02q-1.057-7.4-1.812-19.026-.453-10.117-.3-22.8.151-11.325,1.057-22.65a2.454,2.454,0,0,1,.68-1.283,1.938,1.938,0,0,1,1.435-.529,1.7,1.7,0,0,1,1.661,1.963q-.151,9.362,0,22.5.151,10.721.755,22.5.755,11.476,2.416,22.2.755,3.926,1.208,6.191,1.963,2.718,3.322,4.681a20.7,20.7,0,0,1,2.114,5.285,9.833,9.833,0,0,1-.151,6.191,1.975,1.975,0,0,1-.906.906l.151.755-.453-.6a2.454,2.454,0,0,1-1.208,0,4.948,4.948,0,0,1-.755-.6,34.593,34.593,0,0,1-5.738-10.57,36.434,36.434,0,0,1-1.51-5.285l-1.359-1.51q-6.191-7.4-13.137-15.251-8.909-9.815-13.59-14.647-4.077-4.077-7.248-6.946-1.359-1.359-4.077-3.624-2.265-1.812-3.473-2.869a45.586,45.586,0,0,1-3.926-4.077,16.521,16.521,0,0,1-3.02-5.436,7.356,7.356,0,0,1,1.661-7.4,20.543,20.543,0,0,1,3.322-3.171,6.829,6.829,0,0,1,.906-.6,173.194,173.194,0,0,1,17.063-11.627,225.823,225.823,0,0,1,37-17.214A258.983,258.983,0,0,1,398.64-91.959l9.966-1.661q5.738-.755,10.419-.906a58.1,58.1,0,0,1,10.57.3,26.722,26.722,0,0,1,5.587,1.359A11.015,11.015,0,0,1,440.316-88.637ZM378.1-10.57a21.684,21.684,0,0,1-.151-5.738,21.627,21.627,0,0,1,1.51-5.738l.3-.3a6,6,0,0,1,2.567-2.869.435.435,0,0,0,.3-.151q-.3-2.718-.6-4.228a6.532,6.532,0,0,0-1.812-3.322,3.679,3.679,0,0,0-2.718-1.057h-.453a9.039,9.039,0,0,0-6.946,4.53,21.114,21.114,0,0,0-3.171,8.758,23.476,23.476,0,0,0,.3,9.211,7.576,7.576,0,0,0,1.51,3.624,4.528,4.528,0,0,0,2.718,1.963q3.02,1.057,6.04-2.718v-.151a8.826,8.826,0,0,0,.755-.906A2.1,2.1,0,0,0,378.1-10.57ZM396.224-7.7a1.675,1.675,0,0,1,.3,2.114A10.139,10.139,0,0,1,392.3-.906,7.754,7.754,0,0,1,388.523,0a7.748,7.748,0,0,1-3.171-.6,10.084,10.084,0,0,1-4.681-3.473,12.54,12.54,0,0,1-3.926,2.718,8.967,8.967,0,0,1-6.8.6,10.285,10.285,0,0,1-5.436-3.926,16.673,16.673,0,0,1-2.265-5.738,29.747,29.747,0,0,1,0-11.174,26.6,26.6,0,0,1,4.53-10.117,13.536,13.536,0,0,1,9.815-6.04,8.392,8.392,0,0,1,6.342,1.51,11.223,11.223,0,0,1,3.624,5.134,18.076,18.076,0,0,1,.906,9.664v.453a24.137,24.137,0,0,1-.453,5.587.435.435,0,0,1-.151.3,25.894,25.894,0,0,1-2.567,6.191,5.526,5.526,0,0,0,3.02,3.171,4.066,4.066,0,0,0,2.869.151,8.521,8.521,0,0,0,3.171-1.963Q394.865-9.06,396.224-7.7Zm33.069,1.057a1.371,1.371,0,0,1,.151,1.963,7.177,7.177,0,0,1-2.114,2.34,9.284,9.284,0,0,1-3.02,1.434,7.929,7.929,0,0,1-6.493-1.057,9.042,9.042,0,0,1-2.567-1.963,13.748,13.748,0,0,1-1.51-2.114,1.757,1.757,0,0,1-.3.453,20.008,20.008,0,0,1-2.416,2.567Q407.4,0,404.076,0h-.6a9.816,9.816,0,0,1-7.1-4.53,16.3,16.3,0,0,1-3.02-6.946q-1.208-5.587.453-13.741A55.171,55.171,0,0,1,398.036-37.9a2.361,2.361,0,0,1,1.057-.831,1.841,1.841,0,0,1,1.359.076,1.626,1.626,0,0,1,.755,1.963l-.151.6a96.532,96.532,0,0,0-2.416,11.627,31.047,31.047,0,0,0,.151,11.929A10.934,10.934,0,0,0,400.754-7.7a5.227,5.227,0,0,0,3.322,2.567A5.971,5.971,0,0,0,408.3-6.493a25.754,25.754,0,0,0,4.077-3.624q-.151-1.057-.3-2.416a39.518,39.518,0,0,1,.906-10.57,56.913,56.913,0,0,1,3.02-9.966,1.6,1.6,0,0,1,.906-.981,1.454,1.454,0,0,1,1.208.076,1.442,1.442,0,0,1,1.057,1.661l-1.208,9.966a70.494,70.494,0,0,0-.453,9.513,14.313,14.313,0,0,0,.755,3.926,6.007,6.007,0,0,0,.906,1.51,8.569,8.569,0,0,0,1.359,1.359,4.129,4.129,0,0,0,3.171.831,5.738,5.738,0,0,0,3.171-1.435,1.367,1.367,0,0,1,1.132-.6A1.8,1.8,0,0,1,429.293-6.644Zm12.231-31.861a128.038,128.038,0,0,0,.453-20.234,69.281,69.281,0,0,0-1.51-9.815q-.6-2.265-1.208-3.926a29.633,29.633,0,0,0-2.265,5.738,51.644,51.644,0,0,0-2.114,9.664,155.948,155.948,0,0,0-.6,20.234,94.64,94.64,0,0,0,2.567,19.781l.6-1.812A87.141,87.141,0,0,0,441.524-38.505Zm5.889,34.881a2.071,2.071,0,0,1,1.208.68,1.905,1.905,0,0,1,.453,1.283A1.626,1.626,0,0,1,447.262,0a11.088,11.088,0,0,1-5.889-1.661,14.614,14.614,0,0,1-4.228-4.077,15.912,15.912,0,0,0-.906-1.359,30.824,30.824,0,0,1-3.322,3.624,16.039,16.039,0,0,1-4.983,3.02A1.314,1.314,0,0,1,426.575-.6a2.016,2.016,0,0,1-.529-.377,1.721,1.721,0,0,1-.378-.679,1.562,1.562,0,0,1,1.057-2.114,11.488,11.488,0,0,0,3.624-2.567,30.332,30.332,0,0,0,3.02-3.775q.3-.453.755-1.208a36.314,36.314,0,0,1-1.661-4.379,99.561,99.561,0,0,1-3.171-20.989,120.742,120.742,0,0,1,.3-20.989,53.408,53.408,0,0,1,2.265-10.57,41.1,41.1,0,0,1,4.53-10.268l.151-.151.453-.453a4.03,4.03,0,0,1,1.057-.755,3.982,3.982,0,0,1,2.416-.151,5.712,5.712,0,0,1,1.812,1.208,2.377,2.377,0,0,1,.6.906l.151.3a12.333,12.333,0,0,1,1.057,2.567,30.3,30.3,0,0,1,1.51,5.285,68.346,68.346,0,0,1,1.661,10.721,100.048,100.048,0,0,1-.755,21.14,85.654,85.654,0,0,1-4.832,20.536,38.769,38.769,0,0,1-2.869,6.191,14.02,14.02,0,0,0,1.661,3.02Q443.336-3.775,447.413-3.624Z" transform="translate(-0.151 101.925)" fill="#434343"/>
</svg>
